<?xml version="1.0" encoding="utf-8"?>
<!-- Generator: Adobe Illustrator 26.0.2, SVG Export Plug-In . SVG Version: 6.00 Build 0)  -->
<svg version="1.1" id="Capa_1" xmlns="http://www.w3.org/2000/svg" xmlns:xlink="http://www.w3.org/1999/xlink" x="0px" y="0px"
	 viewBox="0 0 927.8 193.8" style="enable-background:new 0 0 927.8 193.8;" xml:space="preserve">
<style type="text/css">
	.st0{fill:#F9F2ED;}
</style>
<g>
	<g>
		<path class="st0" d="M264.4,121.9c-8.1,0-15.8-1.1-23.2-3.2c-7.4-2.2-13.4-5-17.9-8.4l7.9-17.6c4.2,3.1,9.3,5.6,15.3,7.6
			c5.9,2,11.9,2.9,18,2.9c4.6,0,8.3-0.5,11.2-1.4c2.8-1,4.9-2.2,6.3-3.8c1.3-1.6,2-3.4,2-5.5c0-2.7-1.1-4.8-3.2-6.4
			s-4.9-2.9-8.4-3.9s-7.3-2-11.4-2.9s-8.3-2-12.4-3.3c-4.2-1.3-8-3-11.5-5.2s-6.3-5-8.3-8.5c-2.1-3.5-3.1-7.9-3.1-13.2
			c0-5.8,1.5-11,4.6-15.8c3.1-4.7,7.7-8.5,14-11.4c6.3-2.8,14.2-4.2,23.7-4.2c6.3,0,12.6,0.8,18.8,2.3c6.2,1.5,11.6,3.7,16.2,6.6
			l-7.3,17.6c-4.5-2.6-9.2-4.5-14-5.8s-9.4-1.9-13.8-1.9c-4.6,0-8.3,0.5-11.1,1.5c-2.8,1-4.8,2.4-6.1,4.1c-1.3,1.7-1.9,3.6-1.9,5.8
			c0,2.7,1.1,4.8,3.2,6.5c2.1,1.6,4.9,2.9,8.3,3.8c3.5,0.9,7.3,1.8,11.5,2.7s8.4,2,12.5,3.4c4.1,1.3,7.9,3,11.4,5.1s6.3,4.8,8.4,8.3
			c2.2,3.5,3.2,7.8,3.2,13c0,5.7-1.6,10.8-4.7,15.5s-7.8,8.5-14.2,11.4C281.8,120.4,273.9,121.9,264.4,121.9z"/>
		<path class="st0" d="M342.4,120.1V38.4h-32.2v-19H398v19h-32.2v81.7H342.4z"/>
		<path class="st0" d="M410.4,120.1V19.4H454c9,0,16.8,1.5,23.3,4.4s11.6,7.1,15.1,12.6s5.3,11.9,5.3,19.4c0,7.6-1.8,14.1-5.3,19.5
			c-3.6,5.4-8.6,9.5-15.1,12.4c-6.5,2.8-14.3,4.2-23.3,4.2h-30.8l10.6-10.1v38.3C433.8,120.1,410.4,120.1,410.4,120.1z M433.9,84.4
			l-10.6-11.1h29.5c7.1,0,12.5-1.5,16.1-4.6s5.5-7.4,5.5-13s-1.8-9.9-5.5-12.9c-3.6-3-9-4.5-16.1-4.5h-29.5l10.6-11.1V84.4z
			 M474.6,120.1l-25.3-36.5h25l25.3,36.5H474.6z"/>
		<path class="st0" d="M539.4,101.4h54.8v18.7h-78V19.4h76.1v18.7h-53v63.3H539.4z M537.6,59.8h48.5v18.3h-48.5V59.8z"/>
		<path class="st0" d="M612.7,120.1V19.4H632l59.4,72.5H682V19.4h23v100.7h-19.3l-59.4-72.5h9.4v72.5H612.7z"/>
		<path class="st0" d="M749.9,120.1V38.4h-32.2v-19h87.8v19h-32.2v81.7H749.9z"/>
		<path class="st0" d="M841.4,120.1h-23.5V19.4h23.5V120.1z M888.7,78.8h-49.2V59.1h49.2V78.8z M887,19.4h23.3v100.7H887V19.4z"/>
	</g>
	<g>
		<path class="st0" d="M157.3,67.7c0,0,24.8-20.4,3.4-35.5c0,0-10.1-10.3-21.2-0.2c0,0-4.2-2-3.4,2.2c0,0-0.7,1-1-0.1
			s-10.7-48.3-50.4-18.9c0,0,1.4,4.4,8.2,6c6.8,1.5-1,0.8-1,0.8s-9.2-3.7-9.6-5.9l-6.5,15.5l-18.3,6.9c0,0,1.8,6.7,8.8,7.7
			c0,0,3.3,1,11.3-2.3c0,0,2.4,4.6,3,4.7l-4.2,10.7c0,0-0.2,3.4,5.5,3.3c0,0,2.2,1.3,1.1,4.1c0,0-0.1,0.7,1.2,1.1
			c0,0,1.5,0.5,0.5,2.4c0,0,0.6,1.5,2.2,1.2c0,0,1.9,0.1,1.7,5.9c0,0,3.6,4.4,11.1,1.1c0,0,7.5-1.7,10.5,3.1c3,4.8,3.4,6.9,1.9,10.2
			c-1.5,3.3-6.5,16.1-10.4,18.1c-3.9,1.9-24.1,19-14.7,40.8c0,0,1.6-7.4,8.7-9.1c0,0-7.2,6.1-7.1,13.3c0,0-4.2,5-5.4,5
			c0,0-16.4-7.1-23.7-16.4c0,0-8.7-9.7-8.9-11.4h-0.1c-4.1,2.6-8.9,4-14.1,4c-0.1,0-0.3,0-0.4,0c1.6,3.1,11.9,22.9,21.4,33.2
			c0,0,16.8,15.5,28,16.9c0,0,2.9,0.6,5-0.1c0,0,34.2-17.6,40.9-43.8l0.3-3.8c0,0,0.8-0.7,0.7,5s-2,23.2-31.3,43.9l41.5-9.9l2.9-0.7
			c0,0,3.4,0.4,3.3-7.1c0,0,12-44.6,9-53.2c0,0,0.1-2.4,1.5,0c1.3,2.4,2,4.8,2,4.8s8.7-21.5-6.2-39.9
			C154.7,81,148.9,75.8,157.3,67.7z"/>
		<path class="st0" d="M22.6,131.8l0.7-2.6l27.1,2.5c7.5-4.7,11.7-13.1,11.7-22.6c0-14.7-12.8-24.2-25.8-24.3
			c-11.8-0.1-25.5,9.5-25.5,24.2c0,14.6,10.5,26.5,25.1,26.8c-0.1-0.3-0.2-0.4-0.2-0.4C30.1,136.4,22.6,131.8,22.6,131.8z M17,110.4
			c0-10.9,8.8-19.7,19.7-19.7s19.7,8.8,19.7,19.7s-8.8,19.7-19.7,19.7C25.9,130.1,17,121.2,17,110.4z"/>
		<path class="st0" d="M50.4,131.7l-27.1-2.5l-0.7,2.6c0,0,7.4,4.6,13,3.5c0,0,0.1,0.2,0.2,0.4c0.1,0,0.3,0,0.4,0
			C41.5,135.7,46.3,134.3,50.4,131.7z"/>
		<path class="st0" d="M36.8,126.8c9.1,0,16.5-7.4,16.5-16.5s-7.4-16.5-16.5-16.5s-16.5,7.4-16.5,16.5S27.7,126.8,36.8,126.8z
			 M22.4,107.5c0.7-7.3,7.3-10.2,7.7-10.4l0,0c9-2.3,12.6,0.4,13.8,1.7c0.2,0.2,0,0.6-0.3,0.5c-12.5-2.5-18.7,5.3-20.6,8.4
			C22.8,108,22.4,107.9,22.4,107.5z"/>
	</g>
	<rect x="225.2" y="144" class="st0" width="685" height="32.7"/>
</g>
</svg>
