<?xml version="1.0" encoding="utf-8"?>
<!-- Generator: Adobe Illustrator 26.0.2, SVG Export Plug-In . SVG Version: 6.00 Build 0)  -->
<svg version="1.1" id="Capa_1" xmlns="http://www.w3.org/2000/svg" xmlns:xlink="http://www.w3.org/1999/xlink" x="0px" y="0px"
	 viewBox="0 0 927.8 193.8" style="enable-background:new 0 0 927.8 193.8;" xml:space="preserve">
<style type="text/css">
	.st0{fill:#F9F2ED;}
</style>
<g>
	<g>
		<path class="st0" d="M264.4,121.9c-8.1,0-15.8-1.1-23.2-3.2c-7.4-2.2-13.4-5-17.9-8.4l7.9-17.6c4.2,3.1,9.3,5.6,15.3,7.6
			c5.9,2,11.9,2.9,18,2.9c4.6,0,8.3-0.5,11.2-1.4c2.8-1,4.9-2.2,6.3-3.8c1.3-1.6,2-3.4,2-5.5c0-2.7-1.1-4.8-3.2-6.4
			s-4.9-2.9-8.4-3.9s-7.3-2-11.4-2.9s-8.3-2-12.4-3.3c-4.2-1.3-8-3-11.5-5.2s-6.3-5-8.3-8.5c-2.1-3.5-3.1-7.9-3.1-13.2
			c0-5.8,1.5-11,4.6-15.8c3.1-4.7,7.7-8.5,14-11.4c6.3-2.8,14.2-4.2,23.7-4.2c6.3,0,12.6,0.8,18.8,2.3c6.2,1.5,11.6,3.7,16.2,6.6
			l-7.3,17.6c-4.5-2.6-9.2-4.5-14-5.8s-9.4-1.9-13.8-1.9c-4.6,0-8.3,0.5-11.1,1.5c-2.8,1-4.8,2.4-6.1,4.1c-1.3,1.7-1.9,3.6-1.9,5.8
			c0,2.7,1.1,4.8,3.2,6.5c2.1,1.6,4.9,2.9,8.3,3.8c3.5,0.9,7.3,1.8,11.5,2.7s8.4,2,12.5,3.4c4.1,1.3,7.9,3,11.4,5.1s6.3,4.8,8.4,8.3
			c2.2,3.5,3.2,7.8,3.2,13c0,5.7-1.6,10.8-4.7,15.5s-7.8,8.5-14.2,11.4C281.8,120.4,273.9,121.9,264.4,121.9z"/>
		<path class="st0" d="M342.4,120.1V38.4h-32.2v-19H398v19h-32.2v81.7H342.4z"/>
		<path class="st0" d="M410.4,120.1V19.4H454c9,0,16.8,1.5,23.3,4.4s11.6,7.1,15.1,12.6s5.3,11.9,5.3,19.4c0,7.6-1.8,14.1-5.3,19.5
			c-3.6,5.4-8.6,9.5-15.1,12.4c-6.5,2.8-14.3,4.2-23.3,4.2h-30.8l10.6-10.1v38.3C433.8,120.1,410.4,120.1,410.4,120.1z M433.9,84.4
			l-10.6-11.1h29.5c7.1,0,12.5-1.5,16.1-4.6s5.5-7.4,5.5-13s-1.8-9.9-5.5-12.9c-3.6-3-9-4.5-16.1-4.5h-29.5l10.6-11.1V84.4z
			 M474.6,120.1l-25.3-36.5h25l25.3,36.5H474.6z"/>
		<path class="st0" d="M539.4,101.4h54.8v18.7h-78V19.4h76.1v18.7h-53v63.3H539.4z M537.6,59.8h48.5v18.3h-48.5V59.8z"/>
		<path class="st0" d="M612.7,120.1V19.4H632l59.4,72.5H682V19.4h23v100.7h-19.3l-59.4-72.5h9.4v72.5H612.7z"/>
		<path class="st0" d="M749.9,120.1V38.4h-32.2v-19h87.8v19h-32.2v81.7H749.9z"/>
		<path class="st0" d="M841.4,120.1h-23.5V19.4h23.5V120.1z M888.7,78.8h-49.2V59.1h49.2V78.8z M887,19.4h23.3v100.7H887V19.4z"/>
	</g>
	<g>
		<path class="st0" d="M234.6,176.9c-2.4,0-4.6-0.4-6.7-1.2c-2-0.8-3.8-1.9-5.3-3.4s-2.7-3.2-3.5-5.2s-1.3-4.2-1.3-6.5
			c0-2.4,0.4-4.5,1.3-6.5c0.8-2,2-3.7,3.5-5.2s3.3-2.6,5.3-3.4c2-0.8,4.3-1.2,6.7-1.2c2.3,0,4.5,0.4,6.6,1.2c2,0.8,3.8,1.9,5.2,3.5
			l-2.2,2.2c-1.3-1.3-2.8-2.3-4.4-2.9c-1.6-0.6-3.3-0.9-5.1-0.9c-1.9,0-3.7,0.3-5.4,1c-1.6,0.7-3.1,1.6-4.3,2.8s-2.2,2.6-2.9,4.2
			s-1,3.4-1,5.3s0.3,3.7,1,5.3s1.6,3,2.9,4.2c1.2,1.2,2.7,2.1,4.3,2.8s3.4,1,5.4,1c1.8,0,3.5-0.3,5.1-0.9c1.6-0.6,3-1.6,4.4-2.9
			l2.2,2.2c-1.4,1.6-3.1,2.7-5.2,3.5C239.2,176.5,237,176.9,234.6,176.9z"/>
		<path class="st0" d="M257.1,173.7h19.3v2.9h-22.7v-32.1h22v2.9h-18.6V173.7z M256.7,158.9h17v2.9h-17V158.9z"/>
		<path class="st0" d="M284.3,176.6v-32.1h2.8l22.1,27.9h-1.5v-27.9h3.3v32.1h-2.8l-22.1-27.9h1.5v27.9H284.3z"/>
		<path class="st0" d="M327.8,176.6v-29.1h-11.3v-2.9h25.9v2.9h-11.3v29.1H327.8z"/>
		<path class="st0" d="M347.9,176.6v-32.1h12c2.7,0,5.1,0.4,7,1.3c2,0.9,3.5,2.1,4.5,3.8c1.1,1.6,1.6,3.6,1.6,5.9
			c0,2.3-0.5,4.2-1.6,5.8s-2.6,2.9-4.5,3.8c-2,0.9-4.3,1.3-7,1.3h-10.1l1.5-1.6v11.7h-3.4V176.6z M351.3,165.2l-1.5-1.6h10
			c3.2,0,5.6-0.7,7.3-2.1c1.7-1.4,2.5-3.4,2.5-5.9c0-2.6-0.8-4.6-2.5-6s-4.1-2.1-7.3-2.1h-10l1.5-1.6V165.2z M369.8,176.6l-8.2-11.6
			h3.7l8.3,11.6H369.8z"/>
		<path class="st0" d="M395,176.9c-2.4,0-4.7-0.4-6.7-1.2c-2.1-0.8-3.9-2-5.4-3.4c-1.5-1.5-2.7-3.2-3.5-5.2s-1.3-4.1-1.3-6.5
			s0.4-4.5,1.3-6.5c0.8-2,2-3.7,3.5-5.2s3.3-2.6,5.3-3.4c2-0.8,4.3-1.2,6.7-1.2c2.4,0,4.6,0.4,6.7,1.2c2,0.8,3.8,1.9,5.3,3.4
			s2.7,3.2,3.5,5.2s1.3,4.2,1.3,6.5c0,2.4-0.4,4.5-1.3,6.5c-0.8,2-2,3.7-3.5,5.2s-3.3,2.6-5.3,3.4
			C399.7,176.5,397.5,176.9,395,176.9z M395,173.9c1.9,0,3.7-0.3,5.3-1c1.6-0.7,3.1-1.6,4.3-2.8c1.2-1.2,2.1-2.6,2.8-4.2
			c0.7-1.6,1-3.4,1-5.3s-0.3-3.7-1-5.3s-1.6-3-2.8-4.2c-1.2-1.2-2.6-2.1-4.3-2.8c-1.6-0.7-3.4-1-5.3-1s-3.7,0.3-5.4,1
			c-1.6,0.7-3.1,1.6-4.3,2.8c-1.2,1.2-2.2,2.6-2.8,4.2c-0.7,1.6-1,3.4-1,5.3c0,1.9,0.3,3.7,1,5.3s1.6,3,2.8,4.2
			c1.2,1.2,2.7,2.1,4.3,2.8C391.3,173.5,393.1,173.9,395,173.9z"/>
		<path class="st0" d="M431.5,176.6v-32.1h13.1c3.4,0,6.4,0.7,9,2c2.6,1.4,4.6,3.2,6,5.7c1.4,2.4,2.2,5.2,2.2,8.3s-0.7,5.9-2.2,8.3
			c-1.4,2.4-3.4,4.3-6,5.7s-5.6,2-9,2h-13.1V176.6z M434.9,173.7h9.5c2.8,0,5.3-0.6,7.4-1.7c2.1-1.1,3.7-2.7,4.9-4.6
			c1.2-2,1.7-4.2,1.7-6.8s-0.6-4.9-1.7-6.8c-1.2-2-2.8-3.5-4.9-4.6s-4.6-1.7-7.4-1.7h-9.5V173.7z"/>
		<path class="st0" d="M472.7,173.7H492v2.9h-22.7v-32.1h22v2.9h-18.6L472.7,173.7L472.7,173.7z M472.4,158.9h17v2.9h-17V158.9z"/>
		<path class="st0" d="M515.4,173.7h19.3v2.9H512v-32.1h22v2.9h-18.6V173.7z M515,158.9h17v2.9h-17V158.9z"/>
		<path class="st0" d="M542.7,176.6v-32.1h2.8l22.1,27.9h-1.5v-27.9h3.3v32.1h-2.8l-22.1-27.9h1.5v27.9H542.7z"/>
		<path class="st0" d="M586.2,176.6v-29.1h-11.3v-2.9h25.9v2.9h-11.3v29.1H586.2z"/>
		<path class="st0" d="M606.2,176.6v-32.1h12c2.7,0,5.1,0.4,7,1.3c2,0.9,3.5,2.1,4.5,3.8c1.1,1.6,1.6,3.6,1.6,5.9
			c0,2.3-0.5,4.2-1.6,5.8s-2.6,2.9-4.5,3.8c-2,0.9-4.3,1.3-7,1.3h-10.1l1.5-1.6v11.7h-3.4V176.6z M609.6,165.2l-1.5-1.6h10
			c3.2,0,5.6-0.7,7.3-2.1c1.7-1.4,2.5-3.4,2.5-5.9c0-2.6-0.8-4.6-2.5-6s-4.1-2.1-7.3-2.1h-10l1.5-1.6V165.2z M628.1,176.6l-8.2-11.6
			h3.7l8.3,11.6H628.1z"/>
		<path class="st0" d="M642.8,173.7H662v2.9h-22.7v-32.1h22v2.9h-18.6L642.8,173.7L642.8,173.7z M642.4,158.9h17v2.9h-17V158.9z"/>
		<path class="st0" d="M670,176.6v-32.1h2.8l22.1,27.9h-1.5v-27.9h3.3v32.1H694l-22.1-27.9h1.5v27.9H670z"/>
		<path class="st0" d="M702.1,176.6l14.7-32.1h3.3l14.7,32.1h-3.6l-13.5-30.1h1.4l-13.5,30.1H702.1z M707.9,168.1l1-2.7h18.7l1,2.7
			H707.9z"/>
		<path class="st0" d="M740.1,176.6v-32.1h2.8l14.7,25h-1.5l14.5-25h2.8v32.1h-3.3v-27h0.8l-13.4,22.9H756l-13.5-22.9h0.9v27H740.1z
			"/>
		<path class="st0" d="M783.9,176.6v-32.1h3.4v32.1H783.9z"/>
		<path class="st0" d="M801.1,173.7h19.3v2.9h-22.7v-32.1h22v2.9h-18.6V173.7z M800.8,158.9h17v2.9h-17V158.9z"/>
		<path class="st0" d="M828.4,176.6v-32.1h2.8l22.1,27.9h-1.5v-27.9h3.3v32.1h-2.8l-22.1-27.9h1.5v27.9H828.4z"/>
		<path class="st0" d="M871.9,176.6v-29.1h-11.3v-2.9h25.9v2.9h-11.3v29.1H871.9z"/>
		<path class="st0" d="M905.5,176.9c-2.4,0-4.7-0.4-6.7-1.2c-2.1-0.8-3.9-2-5.4-3.4c-1.5-1.5-2.7-3.2-3.5-5.2s-1.3-4.1-1.3-6.5
			s0.4-4.5,1.3-6.5c0.8-2,2-3.7,3.5-5.2s3.3-2.6,5.3-3.4c2-0.8,4.3-1.2,6.7-1.2s4.6,0.4,6.7,1.2c2,0.8,3.8,1.9,5.3,3.4
			s2.7,3.2,3.5,5.2s1.3,4.2,1.3,6.5c0,2.4-0.4,4.5-1.3,6.5c-0.8,2-2,3.7-3.5,5.2s-3.3,2.6-5.3,3.4
			C910.2,176.5,907.9,176.9,905.5,176.9z M905.5,173.9c1.9,0,3.7-0.3,5.3-1s3.1-1.6,4.3-2.8s2.1-2.6,2.8-4.2c0.7-1.6,1-3.4,1-5.3
			s-0.3-3.7-1-5.3s-1.6-3-2.8-4.2s-2.6-2.1-4.3-2.8c-1.6-0.7-3.4-1-5.3-1s-3.7,0.3-5.4,1c-1.6,0.7-3.1,1.6-4.3,2.8s-2.2,2.6-2.8,4.2
			c-0.7,1.6-1,3.4-1,5.3c0,1.9,0.3,3.7,1,5.3s1.6,3,2.8,4.2s2.7,2.1,4.3,2.8C901.8,173.5,903.6,173.9,905.5,173.9z"/>
	</g>
	<g>
		<path class="st0" d="M157.3,67.7c0,0,24.8-20.4,3.4-35.5c0,0-10.1-10.3-21.2-0.2c0,0-4.2-2-3.4,2.2c0,0-0.7,1-1-0.1
			s-10.7-48.3-50.4-18.9c0,0,1.4,4.4,8.2,6c6.8,1.5-1,0.8-1,0.8s-9.2-3.7-9.6-5.9l-6.5,15.5l-18.3,6.9c0,0,1.8,6.7,8.8,7.7
			c0,0,3.3,1,11.3-2.3c0,0,2.4,4.6,3,4.7l-4.2,10.7c0,0-0.2,3.4,5.5,3.3c0,0,2.2,1.3,1.1,4.1c0,0-0.1,0.7,1.2,1.1
			c0,0,1.5,0.5,0.5,2.4c0,0,0.6,1.5,2.2,1.2c0,0,1.9,0.1,1.7,5.9c0,0,3.6,4.4,11.1,1.1c0,0,7.5-1.7,10.5,3.1c3,4.8,3.4,6.9,1.9,10.2
			c-1.5,3.3-6.5,16.1-10.4,18.1c-3.9,1.9-24.1,19-14.7,40.8c0,0,1.6-7.4,8.7-9.1c0,0-7.2,6.1-7.1,13.3c0,0-4.2,5-5.4,5
			c0,0-16.4-7.1-23.7-16.4c0,0-8.7-9.7-8.9-11.4h-0.1c-4.1,2.6-8.9,4-14.1,4c-0.1,0-0.3,0-0.4,0c1.6,3.1,11.9,22.9,21.4,33.2
			c0,0,16.8,15.5,28,16.9c0,0,2.9,0.6,5-0.1c0,0,34.2-17.6,40.9-43.8l0.3-3.8c0,0,0.8-0.7,0.7,5s-2,23.2-31.3,43.9l41.5-9.9l2.9-0.7
			c0,0,3.4,0.4,3.3-7.1c0,0,12-44.6,9-53.2c0,0,0.1-2.4,1.5,0c1.3,2.4,2,4.8,2,4.8s8.7-21.5-6.2-39.9
			C154.7,81,148.9,75.8,157.3,67.7z"/>
		<path class="st0" d="M22.6,131.8l0.7-2.6l27.1,2.5c7.5-4.7,11.7-13.1,11.7-22.6c0-14.7-12.8-24.2-25.8-24.3
			c-11.8-0.1-25.5,9.5-25.5,24.2c0,14.6,10.5,26.5,25.1,26.8c-0.1-0.3-0.2-0.4-0.2-0.4C30.1,136.4,22.6,131.8,22.6,131.8z M17,110.4
			c0-10.9,8.8-19.7,19.7-19.7s19.7,8.8,19.7,19.7s-8.8,19.7-19.7,19.7C25.9,130.1,17,121.2,17,110.4z"/>
		<path class="st0" d="M50.4,131.7l-27.1-2.5l-0.7,2.6c0,0,7.4,4.6,13,3.5c0,0,0.1,0.2,0.2,0.4c0.1,0,0.3,0,0.4,0
			C41.5,135.7,46.3,134.3,50.4,131.7z"/>
		<path class="st0" d="M36.8,126.8c9.1,0,16.5-7.4,16.5-16.5s-7.4-16.5-16.5-16.5s-16.5,7.4-16.5,16.5S27.7,126.8,36.8,126.8z
			 M22.4,107.5c0.7-7.3,7.3-10.2,7.7-10.4l0,0c9-2.3,12.6,0.4,13.8,1.7c0.2,0.2,0,0.6-0.3,0.5c-12.5-2.5-18.7,5.3-20.6,8.4
			C22.8,108,22.4,107.9,22.4,107.5z"/>
	</g>
</g>
<g>
	<g>
		<path class="st0" d="M264.4,121.9c-8.1,0-15.8-1.1-23.2-3.2c-7.4-2.2-13.4-5-17.9-8.4l7.9-17.6c4.2,3.1,9.3,5.6,15.3,7.6
			c5.9,2,11.9,2.9,18,2.9c4.6,0,8.3-0.5,11.2-1.4c2.8-1,4.9-2.2,6.3-3.8c1.3-1.6,2-3.4,2-5.5c0-2.7-1.1-4.8-3.2-6.4
			s-4.9-2.9-8.4-3.9s-7.3-2-11.4-2.9s-8.3-2-12.4-3.3c-4.2-1.3-8-3-11.5-5.2s-6.3-5-8.3-8.5c-2.1-3.5-3.1-7.9-3.1-13.2
			c0-5.8,1.5-11,4.6-15.8c3.1-4.7,7.7-8.5,14-11.4c6.3-2.8,14.2-4.2,23.7-4.2c6.3,0,12.6,0.8,18.8,2.3c6.2,1.5,11.6,3.7,16.2,6.6
			l-7.3,17.6c-4.5-2.6-9.2-4.5-14-5.8s-9.4-1.9-13.8-1.9c-4.6,0-8.3,0.5-11.1,1.5c-2.8,1-4.8,2.4-6.1,4.1c-1.3,1.7-1.9,3.6-1.9,5.8
			c0,2.7,1.1,4.8,3.2,6.5c2.1,1.6,4.9,2.9,8.3,3.8c3.5,0.9,7.3,1.8,11.5,2.7s8.4,2,12.5,3.4c4.1,1.3,7.9,3,11.4,5.1s6.3,4.8,8.4,8.3
			c2.2,3.5,3.2,7.8,3.2,13c0,5.7-1.6,10.8-4.7,15.5s-7.8,8.5-14.2,11.4C281.8,120.4,273.9,121.9,264.4,121.9z"/>
		<path class="st0" d="M342.4,120.1V38.4h-32.2v-19H398v19h-32.2v81.7H342.4z"/>
		<path class="st0" d="M410.4,120.1V19.4H454c9,0,16.8,1.5,23.3,4.4s11.6,7.1,15.1,12.6s5.3,11.9,5.3,19.4c0,7.6-1.8,14.1-5.3,19.5
			c-3.6,5.4-8.6,9.5-15.1,12.4c-6.5,2.8-14.3,4.2-23.3,4.2h-30.8l10.6-10.1v38.3C433.8,120.1,410.4,120.1,410.4,120.1z M433.9,84.4
			l-10.6-11.1h29.5c7.1,0,12.5-1.5,16.1-4.6s5.5-7.4,5.5-13s-1.8-9.9-5.5-12.9c-3.6-3-9-4.5-16.1-4.5h-29.5l10.6-11.1V84.4z
			 M474.6,120.1l-25.3-36.5h25l25.3,36.5H474.6z"/>
		<path class="st0" d="M539.4,101.4h54.8v18.7h-78V19.4h76.1v18.7h-53v63.3H539.4z M537.6,59.8h48.5v18.3h-48.5V59.8z"/>
		<path class="st0" d="M612.7,120.1V19.4H632l59.4,72.5H682V19.4h23v100.7h-19.3l-59.4-72.5h9.4v72.5H612.7z"/>
		<path class="st0" d="M749.9,120.1V38.4h-32.2v-19h87.8v19h-32.2v81.7H749.9z"/>
		<path class="st0" d="M841.4,120.1h-23.5V19.4h23.5V120.1z M888.7,78.8h-49.2V59.1h49.2V78.8z M887,19.4h23.3v100.7H887V19.4z"/>
	</g>
	<g>
		<path class="st0" d="M234.6,176.9c-2.4,0-4.6-0.4-6.7-1.2c-2-0.8-3.8-1.9-5.3-3.4s-2.7-3.2-3.5-5.2s-1.3-4.2-1.3-6.5
			c0-2.4,0.4-4.5,1.3-6.5c0.8-2,2-3.7,3.5-5.2s3.3-2.6,5.3-3.4c2-0.8,4.3-1.2,6.7-1.2c2.3,0,4.5,0.4,6.6,1.2c2,0.8,3.8,1.9,5.2,3.5
			l-2.2,2.2c-1.3-1.3-2.8-2.3-4.4-2.9c-1.6-0.6-3.3-0.9-5.1-0.9c-1.9,0-3.7,0.3-5.4,1c-1.6,0.7-3.1,1.6-4.3,2.8s-2.2,2.6-2.9,4.2
			s-1,3.4-1,5.3s0.3,3.7,1,5.3s1.6,3,2.9,4.2c1.2,1.2,2.7,2.1,4.3,2.8s3.4,1,5.4,1c1.8,0,3.5-0.3,5.1-0.9c1.6-0.6,3-1.6,4.4-2.9
			l2.2,2.2c-1.4,1.6-3.1,2.7-5.2,3.5C239.2,176.5,237,176.9,234.6,176.9z"/>
		<path class="st0" d="M257.1,173.7h19.3v2.9h-22.7v-32.1h22v2.9h-18.6V173.7z M256.7,158.9h17v2.9h-17V158.9z"/>
		<path class="st0" d="M284.3,176.6v-32.1h2.8l22.1,27.9h-1.5v-27.9h3.3v32.1h-2.8l-22.1-27.9h1.5v27.9H284.3z"/>
		<path class="st0" d="M327.8,176.6v-29.1h-11.3v-2.9h25.9v2.9h-11.3v29.1H327.8z"/>
		<path class="st0" d="M347.9,176.6v-32.1h12c2.7,0,5.1,0.4,7,1.3c2,0.9,3.5,2.1,4.5,3.8c1.1,1.6,1.6,3.6,1.6,5.9
			c0,2.3-0.5,4.2-1.6,5.8s-2.6,2.9-4.5,3.8c-2,0.9-4.3,1.3-7,1.3h-10.1l1.5-1.6v11.7h-3.4V176.6z M351.3,165.2l-1.5-1.6h10
			c3.2,0,5.6-0.7,7.3-2.1c1.7-1.4,2.5-3.4,2.5-5.9c0-2.6-0.8-4.6-2.5-6s-4.1-2.1-7.3-2.1h-10l1.5-1.6V165.2z M369.8,176.6l-8.2-11.6
			h3.7l8.3,11.6H369.8z"/>
		<path class="st0" d="M395,176.9c-2.4,0-4.7-0.4-6.7-1.2c-2.1-0.8-3.9-2-5.4-3.4c-1.5-1.5-2.7-3.2-3.5-5.2s-1.3-4.1-1.3-6.5
			s0.4-4.5,1.3-6.5c0.8-2,2-3.7,3.5-5.2s3.3-2.6,5.3-3.4c2-0.8,4.3-1.2,6.7-1.2c2.4,0,4.6,0.4,6.7,1.2c2,0.8,3.8,1.9,5.3,3.4
			s2.7,3.2,3.5,5.2s1.3,4.2,1.3,6.5c0,2.4-0.4,4.5-1.3,6.5c-0.8,2-2,3.7-3.5,5.2s-3.3,2.6-5.3,3.4
			C399.7,176.5,397.5,176.9,395,176.9z M395,173.9c1.9,0,3.7-0.3,5.3-1c1.6-0.7,3.1-1.6,4.3-2.8c1.2-1.2,2.1-2.6,2.8-4.2
			c0.7-1.6,1-3.4,1-5.3s-0.3-3.7-1-5.3s-1.6-3-2.8-4.2c-1.2-1.2-2.6-2.1-4.3-2.8c-1.6-0.7-3.4-1-5.3-1s-3.7,0.3-5.4,1
			c-1.6,0.7-3.1,1.6-4.3,2.8c-1.2,1.2-2.2,2.6-2.8,4.2c-0.7,1.6-1,3.4-1,5.3c0,1.9,0.3,3.7,1,5.3s1.6,3,2.8,4.2
			c1.2,1.2,2.7,2.1,4.3,2.8C391.3,173.5,393.1,173.9,395,173.9z"/>
		<path class="st0" d="M431.5,176.6v-32.1h13.1c3.4,0,6.4,0.7,9,2c2.6,1.4,4.6,3.2,6,5.7c1.4,2.4,2.2,5.2,2.2,8.3s-0.7,5.9-2.2,8.3
			c-1.4,2.4-3.4,4.3-6,5.7s-5.6,2-9,2h-13.1V176.6z M434.9,173.7h9.5c2.8,0,5.3-0.6,7.4-1.7c2.1-1.1,3.7-2.7,4.9-4.6
			c1.2-2,1.7-4.2,1.7-6.8s-0.6-4.9-1.7-6.8c-1.2-2-2.8-3.5-4.9-4.6s-4.6-1.7-7.4-1.7h-9.5V173.7z"/>
		<path class="st0" d="M472.7,173.7H492v2.9h-22.7v-32.1h22v2.9h-18.6L472.7,173.7L472.7,173.7z M472.4,158.9h17v2.9h-17V158.9z"/>
		<path class="st0" d="M515.4,173.7h19.3v2.9H512v-32.1h22v2.9h-18.6V173.7z M515,158.9h17v2.9h-17V158.9z"/>
		<path class="st0" d="M542.7,176.6v-32.1h2.8l22.1,27.9h-1.5v-27.9h3.3v32.1h-2.8l-22.1-27.9h1.5v27.9H542.7z"/>
		<path class="st0" d="M586.2,176.6v-29.1h-11.3v-2.9h25.9v2.9h-11.3v29.1H586.2z"/>
		<path class="st0" d="M606.2,176.6v-32.1h12c2.7,0,5.1,0.4,7,1.3c2,0.9,3.5,2.1,4.5,3.8c1.1,1.6,1.6,3.6,1.6,5.9
			c0,2.3-0.5,4.2-1.6,5.8s-2.6,2.9-4.5,3.8c-2,0.9-4.3,1.3-7,1.3h-10.1l1.5-1.6v11.7h-3.4V176.6z M609.6,165.2l-1.5-1.6h10
			c3.2,0,5.6-0.7,7.3-2.1c1.7-1.4,2.5-3.4,2.5-5.9c0-2.6-0.8-4.6-2.5-6s-4.1-2.1-7.3-2.1h-10l1.5-1.6V165.2z M628.1,176.6l-8.2-11.6
			h3.7l8.3,11.6H628.1z"/>
		<path class="st0" d="M642.8,173.7H662v2.9h-22.7v-32.1h22v2.9h-18.6L642.8,173.7L642.8,173.7z M642.4,158.9h17v2.9h-17V158.9z"/>
		<path class="st0" d="M670,176.6v-32.1h2.8l22.1,27.9h-1.5v-27.9h3.3v32.1H694l-22.1-27.9h1.5v27.9H670z"/>
		<path class="st0" d="M702.1,176.6l14.7-32.1h3.3l14.7,32.1h-3.6l-13.5-30.1h1.4l-13.5,30.1H702.1z M707.9,168.1l1-2.7h18.7l1,2.7
			H707.9z"/>
		<path class="st0" d="M740.1,176.6v-32.1h2.8l14.7,25h-1.5l14.5-25h2.8v32.1h-3.3v-27h0.8l-13.4,22.9H756l-13.5-22.9h0.9v27H740.1z
			"/>
		<path class="st0" d="M783.9,176.6v-32.1h3.4v32.1H783.9z"/>
		<path class="st0" d="M801.1,173.7h19.3v2.9h-22.7v-32.1h22v2.9h-18.6V173.7z M800.8,158.9h17v2.9h-17V158.9z"/>
		<path class="st0" d="M828.4,176.6v-32.1h2.8l22.1,27.9h-1.5v-27.9h3.3v32.1h-2.8l-22.1-27.9h1.5v27.9H828.4z"/>
		<path class="st0" d="M871.9,176.6v-29.1h-11.3v-2.9h25.9v2.9h-11.3v29.1H871.9z"/>
		<path class="st0" d="M905.5,176.9c-2.4,0-4.7-0.4-6.7-1.2c-2.1-0.8-3.9-2-5.4-3.4c-1.5-1.5-2.7-3.2-3.5-5.2s-1.3-4.1-1.3-6.5
			s0.4-4.5,1.3-6.5c0.8-2,2-3.7,3.5-5.2s3.3-2.6,5.3-3.4c2-0.8,4.3-1.2,6.7-1.2s4.6,0.4,6.7,1.2c2,0.8,3.8,1.9,5.3,3.4
			s2.7,3.2,3.5,5.2s1.3,4.2,1.3,6.5c0,2.4-0.4,4.5-1.3,6.5c-0.8,2-2,3.7-3.5,5.2s-3.3,2.6-5.3,3.4
			C910.2,176.5,907.9,176.9,905.5,176.9z M905.5,173.9c1.9,0,3.7-0.3,5.3-1s3.1-1.6,4.3-2.8s2.1-2.6,2.8-4.2c0.7-1.6,1-3.4,1-5.3
			s-0.3-3.7-1-5.3s-1.6-3-2.8-4.2s-2.6-2.1-4.3-2.8c-1.6-0.7-3.4-1-5.3-1s-3.7,0.3-5.4,1c-1.6,0.7-3.1,1.6-4.3,2.8s-2.2,2.6-2.8,4.2
			c-0.7,1.6-1,3.4-1,5.3c0,1.9,0.3,3.7,1,5.3s1.6,3,2.8,4.2s2.7,2.1,4.3,2.8C901.8,173.5,903.6,173.9,905.5,173.9z"/>
	</g>
	<g>
		<path class="st0" d="M157.3,67.7c0,0,24.8-20.4,3.4-35.5c0,0-10.1-10.3-21.2-0.2c0,0-4.2-2-3.4,2.2c0,0-0.7,1-1-0.1
			s-10.7-48.3-50.4-18.9c0,0,1.4,4.4,8.2,6c6.8,1.5-1,0.8-1,0.8s-9.2-3.7-9.6-5.9l-6.5,15.5l-18.3,6.9c0,0,1.8,6.7,8.8,7.7
			c0,0,3.3,1,11.3-2.3c0,0,2.4,4.6,3,4.7l-4.2,10.7c0,0-0.2,3.4,5.5,3.3c0,0,2.2,1.3,1.1,4.1c0,0-0.1,0.7,1.2,1.1
			c0,0,1.5,0.5,0.5,2.4c0,0,0.6,1.5,2.2,1.2c0,0,1.9,0.1,1.7,5.9c0,0,3.6,4.4,11.1,1.1c0,0,7.5-1.7,10.5,3.1c3,4.8,3.4,6.9,1.9,10.2
			c-1.5,3.3-6.5,16.1-10.4,18.1c-3.9,1.9-24.1,19-14.7,40.8c0,0,1.6-7.4,8.7-9.1c0,0-7.2,6.1-7.1,13.3c0,0-4.2,5-5.4,5
			c0,0-16.4-7.1-23.7-16.4c0,0-8.7-9.7-8.9-11.4h-0.1c-4.1,2.6-8.9,4-14.1,4c-0.1,0-0.3,0-0.4,0c1.6,3.1,11.9,22.9,21.4,33.2
			c0,0,16.8,15.5,28,16.9c0,0,2.9,0.6,5-0.1c0,0,34.2-17.6,40.9-43.8l0.3-3.8c0,0,0.8-0.7,0.7,5s-2,23.2-31.3,43.9l41.5-9.9l2.9-0.7
			c0,0,3.4,0.4,3.3-7.1c0,0,12-44.6,9-53.2c0,0,0.1-2.4,1.5,0c1.3,2.4,2,4.8,2,4.8s8.7-21.5-6.2-39.9
			C154.7,81,148.9,75.8,157.3,67.7z"/>
		<path class="st0" d="M22.6,131.8l0.7-2.6l27.1,2.5c7.5-4.7,11.7-13.1,11.7-22.6c0-14.7-12.8-24.2-25.8-24.3
			c-11.8-0.1-25.5,9.5-25.5,24.2c0,14.6,10.5,26.5,25.1,26.8c-0.1-0.3-0.2-0.4-0.2-0.4C30.1,136.4,22.6,131.8,22.6,131.8z M17,110.4
			c0-10.9,8.8-19.7,19.7-19.7s19.7,8.8,19.7,19.7s-8.8,19.7-19.7,19.7C25.9,130.1,17,121.2,17,110.4z"/>
		<path class="st0" d="M50.4,131.7l-27.1-2.5l-0.7,2.6c0,0,7.4,4.6,13,3.5c0,0,0.1,0.2,0.2,0.4c0.1,0,0.3,0,0.4,0
			C41.5,135.7,46.3,134.3,50.4,131.7z"/>
		<path class="st0" d="M36.8,126.8c9.1,0,16.5-7.4,16.5-16.5s-7.4-16.5-16.5-16.5s-16.5,7.4-16.5,16.5S27.7,126.8,36.8,126.8z
			 M22.4,107.5c0.7-7.3,7.3-10.2,7.7-10.4l0,0c9-2.3,12.6,0.4,13.8,1.7c0.2,0.2,0,0.6-0.3,0.5c-12.5-2.5-18.7,5.3-20.6,8.4
			C22.8,108,22.4,107.9,22.4,107.5z"/>
	</g>
</g>
</svg>
